# xmcd CD database file
#
# Track frame offsets:
#	150
#	1601
#	52419
#	77306
#	85575
#	112133
#	135840
#	165369
#	187008
#	189520
#	191100
#	247873
#	277312
#	278837
#
# Disc length: 4185 seconds
#
# Revision: 0
# Processed by: cddbd v1.5.2PL0 Copyright (c) Steve Scherf et al.
# Submitted via: CDex 1.70beta2
#
DISCID=b610570e
DTITLE=Theo Parrish - Sound Sculptures Vol 1(CD2)
DYEAR=2008
DGENRE=Jazz
TTITLE0=uppitynegronomics
TTITLE1=Goin Downstairs - music?
TTITLE2=The Rink
TTITLE3=Programming - unauthorized procedure - criminal drug evasion
TTITLE4=Soul Control Featuring Alena Waters - quarter run
TTITLE5=Synthetic Flemm
TTITLE6=Galactic Ancestors
TTITLE7=Flotation Device - fear or laziness?
TTITLE8=Laziness
TTITLE9=Fear
TTITLE10=Usually Suspected Featuring Amp Fiddler - the quest
TTITLE11=Second Chances Featuring MonicaBlaire
TTITLE12=Space Cowboys And
TTITLE13=The Interplanetary Gangster Edit
EXTD=YEAR: 2008
EXTT0=
EXTT1=
EXTT2=
EXTT3=
EXTT4=
EXTT5=
EXTT6=
EXTT7=
EXTT8=
EXTT9=
EXTT10=
EXTT11=
EXTT12=
EXTT13=
PLAYORDER=
